<svg width="172" height="18" viewBox="0 0 172 18" fill="none" xmlns="http://www.w3.org/2000/svg">
<path d="M155.87 13.6859V10.6836H167.446V13.6859H155.87ZM151.515 17.4995L159.737 0H163.632L171.936 17.4995H168.014L160.819 1.73102H162.55L155.41 17.4995H151.515Z" fill="black"/>
<path d="M138.932 0H142.529V17.4995H138.932V0Z" fill="black"/>
<path d="M111.407 0H129.853V3.00223H111.407V0ZM118.845 2.62357H122.442V17.4995H118.845V2.62357Z" fill="black"/>
<path d="M84.6523 17.4995V0H96.526C97.8783 0 99.0504 0.18933 100.042 0.56799C101.052 0.928619 101.836 1.50563 102.395 2.29901C102.954 3.07436 103.234 4.07511 103.234 5.30124C103.234 6.13069 103.089 6.83392 102.801 7.41092C102.512 7.98793 102.107 8.45675 101.584 8.81738C101.079 9.178 100.493 9.45749 99.8257 9.65584C99.1586 9.83615 98.4463 9.95336 97.689 10.0075L97.3104 9.79107C98.5726 9.8091 99.6094 9.91729 100.421 10.1156C101.232 10.296 101.836 10.6386 102.233 11.1434C102.648 11.6303 102.855 12.3606 102.855 13.3343V17.4995H99.2578V13.5777C99.2578 12.9105 99.1405 12.3966 98.9061 12.036C98.6717 11.6573 98.248 11.3959 97.6349 11.2516C97.0399 11.1074 96.1744 11.0352 95.0384 11.0352H88.2496V17.4995H84.6523ZM88.2496 8.22234H96.526C97.5357 8.22234 98.3021 7.97891 98.825 7.49206C99.3659 7.00521 99.6364 6.34707 99.6364 5.51762C99.6364 4.72424 99.3659 4.12018 98.825 3.70546C98.3021 3.29074 97.5357 3.08338 96.526 3.08338H88.2496V8.22234Z" fill="black"/>
<path d="M45.3281 13.9293L44.1921 14.3891V0H47.7894V17.4995H44.1921L30.0464 3.67841L31.1824 3.21861V17.4995H27.5851V0H31.1824L45.3281 13.9293Z" fill="black"/>
<path fill-rule="evenodd" clip-rule="evenodd" d="M61.5133 14.4904V14.4973H75.0098V17.4995H57.916V14.4904H61.5133ZM63.3575 10.1968H74.9828V7.35683H61.5133V7.35636H57.916V10.1937H63.3575V10.1968ZM61.5133 3.00909H57.916V0H74.9828V3.00223H61.5133V3.00909Z" fill="black"/>
<path fill-rule="evenodd" clip-rule="evenodd" d="M4.44493 14.4754V14.4973H17.9415V17.4995H0.847656V14.4754H4.44493ZM5.96103 10.1968H17.9144V7.35683H4.44493V7.35635H0.847656V10.1787H5.96103V10.1968ZM4.44493 3.00908H0.847656V0H17.9144V3.00223H4.44493V3.00908Z" fill="black"/>
</svg>
